<?xml version="1.0" encoding="UTF-8" standalone="no"?>
<!-- Created with Inkscape (http://www.inkscape.org/) -->

<svg
   width="218.22902mm"
   height="148.15671mm"
   viewBox="0 0 218.22902 148.15671"
   version="1.1"
   id="svg5"
   inkscape:version="1.1.2 (0a00cf5339, 2022-02-04)"
   sodipodi:docname="dessin.svg"
   xmlns:inkscape="http://www.inkscape.org/namespaces/inkscape"
   xmlns:sodipodi="http://sodipodi.sourceforge.net/DTD/sodipodi-0.dtd"
   xmlns="http://www.w3.org/2000/svg"
   xmlns:svg="http://www.w3.org/2000/svg">
  <sodipodi:namedview
     id="namedview7"
     pagecolor="#ffffff"
     bordercolor="#666666"
     borderopacity="1.0"
     inkscape:pageshadow="2"
     inkscape:pageopacity="0.0"
     inkscape:pagecheckerboard="0"
     inkscape:document-units="mm"
     showgrid="false"
     inkscape:object-nodes="false"
     fit-margin-top="0"
     fit-margin-left="0"
     fit-margin-right="0"
     fit-margin-bottom="0"
     inkscape:zoom="0.77733137"
     inkscape:cx="418.09711"
     inkscape:cy="259.22021"
     inkscape:window-width="1440"
     inkscape:window-height="840"
     inkscape:window-x="0"
     inkscape:window-y="0"
     inkscape:window-maximized="1"
     inkscape:current-layer="layer1" />
  <defs
     id="defs2" />
  <g
     inkscape:label="Calque 1"
     inkscape:groupmode="layer"
     id="layer1"
     transform="translate(17.807884,-5.7010803)">
    <rect
       style="fill:#000000;stroke-width:0.264583"
       id="rect25093"
       width="218.22902"
       height="148.15671"
       x="-17.807884"
       y="5.7010803" />
    <text
       xml:space="preserve"
       style="font-size:4.93889px;line-height:1.25;font-family:sans-serif;stroke-width:0.264583"
       x="-17.663969"
       y="89.942894"
       id="text42317-3"><tspan
         sodipodi:role="line"
         id="tspan42315-6"
         style="font-size:4.93889px;fill:#ff0000;stroke-width:0.264583"
         x="-17.663969"
         y="89.942894">paramètre</tspan><tspan
         sodipodi:role="line"
         style="font-size:4.93889px;fill:#ff0000;stroke-width:0.264583"
         x="-17.663969"
         y="96.116508"
         id="tspan42319-7">est passé </tspan><tspan
         sodipodi:role="line"
         style="font-size:4.93889px;fill:#ff0000;stroke-width:0.264583"
         x="-17.663969"
         y="102.29012"
         id="tspan48879-5">sur la pile</tspan></text>
    <text
       xml:space="preserve"
       style="font-size:4.21912px;line-height:1.25;font-family:sans-serif;white-space:pre;inline-size:162.355;fill:#ffffff;stroke-width:0.263695"
       x="7.9435925"
       y="15.909343"
       id="text4323"
       transform="scale(0.99664291,1.0033684)"><tspan
         x="7.9435925"
         y="15.909343"
         id="tspan53789">Dump of assembler code for function main:
</tspan><tspan
         x="7.9435925"
         y="21.183242"
         id="tspan53791">   0x0000000000001149 &lt;+0&gt;:     endbr64 
</tspan><tspan
         x="7.9435925"
         y="26.457141"
         id="tspan53793">   0x000000000000114d &lt;+4&gt;:     push   rbp
</tspan><tspan
         x="7.9435925"
         y="31.73104"
         id="tspan53795">   0x000000000000114e &lt;+5&gt;:     mov    rbp,rsp
</tspan><tspan
         x="7.9435925"
         y="37.004939"
         id="tspan53797">   0x0000000000001151 &lt;+8&gt;:     sub    rsp,0x10
</tspan><tspan
         x="7.9435925"
         y="42.278838"
         id="tspan53799">   0x0000000000001155 &lt;+12&gt;:    mov    DWORD PTR [rbp-0x4],0x5
</tspan><tspan
         x="7.9435925"
         y="47.552738"
         id="tspan53801">   0x000000000000115c &lt;+19&gt;:    mov    r8d,DWORD PTR [rbp-0x4]
</tspan><tspan
         x="7.9435925"
         y="52.826637"
         id="tspan53803">   0x0000000000001160 &lt;+23&gt;:    mov    edi,DWORD PTR [rbp-0x4]
</tspan><tspan
         x="7.9435925"
         y="58.100536"
         id="tspan53805">   0x0000000000001163 &lt;+26&gt;:    mov    ecx,DWORD PTR [rbp-0x4]
</tspan><tspan
         x="7.9435925"
         y="63.374435"
         id="tspan53807">   0x0000000000001166 &lt;+29&gt;:    mov    edx,DWORD PTR [rbp-0x4]
</tspan><tspan
         x="7.9435925"
         y="68.648338"
         id="tspan53809">   0x0000000000001169 &lt;+32&gt;:    mov    eax,DWORD PTR [rbp-0x4]
</tspan><tspan
         x="7.9435925"
         y="73.922241"
         id="tspan53811">   0x000000000000116c &lt;+35&gt;:    mov    esi,DWORD PTR [rbp-0x4]
</tspan><tspan
         x="7.9435925"
         y="79.196143"
         id="tspan53813">   0x000000000000116f &lt;+38&gt;:    push   rsi
</tspan><tspan
         x="7.9435925"
         y="84.470046"
         id="tspan53815">   0x0000000000001170 &lt;+39&gt;:    mov    esi,DWORD PTR [rbp-0x4]
</tspan><tspan
         x="7.9435925"
         y="89.743949"
         id="tspan53817">   0x0000000000001173 &lt;+42&gt;:    push   rsi
</tspan><tspan
         x="7.9435925"
         y="95.017852"
         id="tspan53819">   0x0000000000001174 &lt;+43&gt;:    mov    r9d,r8d
</tspan><tspan
         x="7.9435925"
         y="100.29175"
         id="tspan53821">   0x0000000000001177 &lt;+46&gt;:    mov    r8d,edi
</tspan><tspan
         x="7.9435925"
         y="105.56566"
         id="tspan53823">   0x000000000000117a &lt;+49&gt;:    mov    esi,eax
</tspan><tspan
         x="7.9435925"
         y="110.83956"
         id="tspan53825">   0x000000000000117c &lt;+51&gt;:    lea    rax,[rip+0xe85]        # 0x2008
</tspan><tspan
         x="7.9435925"
         y="116.11346"
         id="tspan53827">   0x0000000000001183 &lt;+58&gt;:    mov    rdi,rax
</tspan><tspan
         x="7.9435925"
         y="121.38737"
         id="tspan53829">   0x0000000000001186 &lt;+61&gt;:    mov    eax,0x0
</tspan><tspan
         x="7.9435925"
         y="126.66127"
         id="tspan53831">   0x000000000000118b &lt;+66&gt;:    call   0x1050 &lt;printf@plt&gt;
</tspan><tspan
         x="7.9435925"
         y="131.93517"
         id="tspan53833">   0x0000000000001190 &lt;+71&gt;:    add    rsp,0x10                                        
</tspan><tspan
         x="7.9435925"
         y="137.20907"
         id="tspan53835">   0x0000000000001194 &lt;+75&gt;:    mov    eax,0x0                                         
</tspan><tspan
         x="7.9435925"
         y="142.48296"
         id="tspan53837">   0x0000000000001199 &lt;+80&gt;:    leave                                                  
</tspan><tspan
         x="7.9435925"
         y="147.75686"
         id="tspan53839">   0x000000000000119a &lt;+81&gt;:    ret                                                    </tspan></text>
    <path
       style="fill:#ff0000;stroke-width:0.264583"
       id="path25267"
       d="m 151.94286,37.676259 c 0.62184,-0.01045 1.24378,-0.0089 1.86568,-0.0075 0.55573,0.003 1.11147,0.0019 1.6672,0.0016 0.7067,-0.06198 1.29449,0.211466 1.87743,0.5773 0.54701,0.436163 1.06921,0.916347 1.52251,1.450226 0.40659,0.522222 0.57219,1.163627 0.70034,1.800918 0.15177,0.884426 0.41777,1.741154 0.61526,2.614867 0.21696,1.228574 0.41429,2.460283 0.56243,3.699145 0.13876,1.615665 0.27358,3.23189 0.36604,4.851079 0.0774,1.941307 0.3151,3.871328 0.44735,5.809615 0.17915,1.660293 0.23489,3.329477 0.35527,4.993831 0.13935,1.870763 0.21386,3.745312 0.31621,5.618305 0.27019,2.138058 0.47248,4.281313 0.57889,6.433725 0.1404,1.784718 0.2422,3.571113 0.29433,5.360522 0.0337,1.634265 0.0309,3.26922 0.025,4.903779 0.009,1.567622 -0.002,3.135262 0.005,4.702874 0.008,1.968272 0.0198,3.936468 0.0253,5.904777 0.003,1.823077 -0.0102,3.646198 -0.0406,5.469018 0.0477,1.1305 0.1449,2.25771 0.18701,3.38852 0.0261,0.83728 0.0229,1.67505 0.0357,2.51253 0.006,1.23843 0.0251,2.47659 0.0315,3.71503 -0.005,1.21847 -0.0167,2.43691 -0.0305,3.65531 0.0318,0.92675 -0.39076,1.7788 -0.80499,2.58358 -0.42555,0.82205 -1.0279,1.51254 -1.66433,2.17503 -0.7622,0.85047 -2.21831,1.23806 0.49815,0.21697 -0.54043,0.21901 -1.11287,0.31351 -1.68107,0.42525 -1.02379,0.21757 -1.93071,0.76442 -2.90054,1.12287 0,0 1.92452,-0.38083 1.92452,-0.38083 v 0 c 0.0617,-0.0269 0.12409,-0.0525 0.1852,-0.0809 0.0662,-0.0307 0.1313,-0.064 0.19677,-0.0964 1.0873,-0.53726 -2.31611,0.82936 -1.121,0.35459 0.56408,-0.12801 1.14745,-0.17884 1.68763,-0.40249 1.36111,-0.49977 2.20986,-0.60881 3.08083,-1.61426 0.62598,-0.67999 1.21565,-1.39071 1.63161,-2.22338 0.41366,-0.83499 0.8467,-1.71581 0.78663,-2.67124 -0.0136,-1.21193 -0.0247,-2.42389 -0.0291,-3.63589 0.007,-1.24554 0.029,-2.49081 0.032,-3.73635 0.007,-0.83854 -0.008,-1.67721 -0.0536,-2.51468 -0.0551,-1.12559 -0.14309,-2.24848 -0.20713,-3.37338 -0.0307,-1.814007 -0.0433,-3.628326 -0.0406,-5.442598 0.006,-1.973948 0.0176,-3.947774 0.0269,-5.921682 0.008,-1.569257 2.3e-4,-3.138561 0.009,-4.707829 -0.009,-1.632714 -0.0191,-3.265355 -0.0595,-4.897683 -0.0469,-1.790243 -0.13648,-3.5779 -0.31064,-5.360858 -0.14111,-2.148819 -0.33427,-4.292883 -0.58273,-6.43214 -0.10734,-1.87702 -0.13561,-3.757083 -0.28263,-5.63182 -0.10699,-1.664917 -0.18605,-3.331477 -0.36588,-4.990957 -0.14531,-1.934679 -0.41289,-3.861007 -0.45698,-5.801887 -0.0635,-1.628944 -0.19541,-3.253449 -0.32596,-4.87816 -0.14758,-1.24728 -0.32473,-2.491123 -0.52997,-3.730162 -0.18969,-0.874604 -0.45892,-1.729734 -0.59461,-2.616551 -0.12501,-0.673383 -0.30007,-1.346243 -0.73215,-1.893928 -0.46149,-0.552137 -0.98912,-1.051001 -1.55022,-1.500994 -0.58285,-0.38517 -1.17946,-0.741497 -1.90561,-0.686575 -0.55795,-2.15e-4 -1.11591,-0.0013 -1.67386,0.0016 -0.61205,0.0013 -1.22415,0.0032 -1.83613,-0.0075 0,0 -1.75763,0.895554 -1.75763,0.895554 z" />
    <text
       xml:space="preserve"
       style="font-size:4.93889px;line-height:1.25;font-family:sans-serif;stroke-width:0.264583"
       x="167.63615"
       y="62.521744"
       id="text27716"><tspan
         sodipodi:role="line"
         id="tspan27714"
         style="font-size:4.93889px;fill:#ff0000;stroke-width:0.264583"
         x="167.63615"
         y="62.521744">Passage de </tspan><tspan
         sodipodi:role="line"
         style="font-size:4.93889px;fill:#ff0000;stroke-width:0.264583"
         x="167.63615"
         y="68.695358"
         id="tspan27718">paramètres</tspan><tspan
         sodipodi:role="line"
         style="font-size:4.93889px;fill:#ff0000;stroke-width:0.264583"
         x="167.63615"
         y="74.868965"
         id="tspan27720">à printf</tspan></text>
    <path
       style="fill:#ff0000;stroke-width:0.264583"
       id="path40146"
       d="m 18.189725,63.952297 c -0.770213,0.0159 -1.540683,0.0088 -2.311011,0.009 -0.667597,0.0013 -1.335182,-0.0036 -2.002772,-0.0043 -0.940897,0.125028 -1.909942,0.600535 -2.72689,0.950555 -0.297972,0.127667 -0.678079,0.512723 -0.926223,0.724993 -0.5243659,0.457856 -1.0177479,0.945581 -1.4641399,1.479309 -0.3560611,0.452855 -0.555876,0.973704 -0.6505712,1.536094 -0.1307002,0.606269 -0.326498,1.194266 -0.4414303,1.804956 -0.028425,0.686421 0.084235,1.359656 0.3580429,1.988105 0.2945974,0.628933 0.7356246,1.140426 1.2574446,1.588963 0.522196,0.356526 1.0810559,0.653362 1.6147119,0.99381 0.546549,0.348808 1.119847,0.656828 1.711152,0.922329 0.597627,0.262374 1.245029,0.347663 1.888926,0.406067 0,0 1.743433,-0.871929 1.743433,-0.871929 v 0 C 15.60443,75.442299 14.962894,75.379727 14.366264,75.13961 13.778098,74.890216 13.218021,74.573251 12.670829,74.244567 12.146447,73.901437 11.6032,73.596081 11.069838,73.269858 10.554099,72.858391 10.125276,72.369073 9.8364121,71.770139 c -0.250437,-0.595366 -0.366381,-1.237578 -0.306264,-1.884466 0.115852,-0.610209 0.308536,-1.199076 0.441818,-1.804974 0.1126829,-0.531331 0.3173019,-1.019075 0.6722479,-1.438315 0.444242,-0.520573 0.936541,-0.995847 1.454663,-1.442924 0.228261,-0.187626 0.377879,-0.319757 0.623736,-0.485087 0.104881,-0.07053 0.445641,-0.2306 0.323661,-0.197511 -2.892452,0.78463 -1.535335,0.563975 -0.904514,0.323728 0.673207,-7.94e-4 1.346409,-0.0057 2.019622,-0.0043 0.758575,1.77e-4 1.517312,-0.0072 2.275762,0.009 0,0 1.752581,-0.892984 1.752581,-0.892984 z" />
    <text
       xml:space="preserve"
       style="font-size:4.93889px;line-height:1.25;font-family:sans-serif;stroke-width:0.264583"
       x="-15.849771"
       y="52.606453"
       id="text42317"><tspan
         sodipodi:role="line"
         id="tspan42315"
         style="font-size:4.93889px;fill:#ff0000;stroke-width:0.264583"
         x="-15.849771"
         y="52.606453">paramètre</tspan><tspan
         sodipodi:role="line"
         style="font-size:4.93889px;fill:#ff0000;stroke-width:0.264583"
         x="-15.849771"
         y="58.780064"
         id="tspan42319">est passé </tspan><tspan
         sodipodi:role="line"
         style="font-size:4.93889px;fill:#ff0000;stroke-width:0.264583"
         x="-15.849771"
         y="64.953674"
         id="tspan48879">sur la pile</tspan></text>
    <path
       style="fill:#ff0000;stroke-width:0.264583"
       id="path40146-3"
       d="m 16.755572,75.13379 c -0.770213,0.0159 -1.540683,0.0088 -2.311011,0.009 -0.667597,0.0013 -1.335182,-0.0036 -2.002772,-0.0043 -0.940897,0.125028 -1.909941,0.600535 -2.7268893,0.950555 -0.297972,0.127667 -0.678079,0.512723 -0.926223,0.724993 -0.5243664,0.457856 -1.0177482,0.945581 -1.46414,1.479309 -0.3560611,0.452855 -0.555876,0.973704 -0.6505712,1.536094 -0.1307002,0.606269 -0.326498,1.194266 -0.4414303,1.804956 -0.028425,0.686421 0.084235,1.359656 0.3580429,1.988105 0.2945974,0.628933 0.7356247,1.140426 1.2574444,1.588963 0.5221965,0.356526 1.0810562,0.653362 1.6147122,0.99381 0.5465493,0.348808 1.1198473,0.656828 1.7111513,0.922329 0.597627,0.262374 1.245029,0.347663 1.888926,0.406067 0,0 1.743433,-0.871929 1.743433,-0.871929 v 0 C 14.170277,86.623792 13.528741,86.56122 12.932111,86.321103 12.343945,86.071709 11.783868,85.754744 11.236676,85.42606 10.712294,85.08293 10.169048,84.777574 9.6356857,84.451351 9.1199467,84.039884 8.6911237,83.550566 8.4022601,82.951632 8.1518229,82.356266 8.0358791,81.714054 8.0959956,81.067166 8.2118479,80.456957 8.4045312,79.86809 8.5378137,79.262192 c 0.112683,-0.531331 0.317302,-1.019075 0.672248,-1.438315 0.444242,-0.520573 0.9365413,-0.995847 1.4546623,-1.442924 0.228261,-0.187626 0.377879,-0.319757 0.623736,-0.485087 0.104881,-0.07053 0.445641,-0.2306 0.323661,-0.197511 -2.8924513,0.78463 -1.535334,0.563975 -0.904514,0.323728 0.673207,-7.94e-4 1.346409,-0.0057 2.019622,-0.0043 0.758575,1.77e-4 1.517312,-0.0072 2.275762,0.009 0,0 1.752581,-0.892984 1.752581,-0.892984 z" />
  </g>
</svg>
